<?xml version="1.0" encoding="UTF-8" standalone="no"?>
<svg
   width="16"
   height="16"
   version="1.1"
   id="svg1"
   sodipodi:docname="icon_sprite2d_plus.svg"
   inkscape:version="1.4 (e7c3feb100, 2024-10-09)"
   inkscape:export-filename="icon_sprite2d_plus.png"
   inkscape:export-xdpi="96"
   inkscape:export-ydpi="96"
   xmlns:inkscape="http://www.inkscape.org/namespaces/inkscape"
   xmlns:sodipodi="http://sodipodi.sourceforge.net/DTD/sodipodi-0.dtd"
   xmlns="http://www.w3.org/2000/svg"
   xmlns:svg="http://www.w3.org/2000/svg">
  <defs
     id="defs1" />
  <sodipodi:namedview
     id="namedview1"
     pagecolor="#ffffff"
     bordercolor="#000000"
     borderopacity="0.25"
     inkscape:showpageshadow="2"
     inkscape:pageopacity="0.0"
     inkscape:pagecheckerboard="0"
     inkscape:deskcolor="#d1d1d1"
     inkscape:zoom="33.67596"
     inkscape:cx="8.3145364"
     inkscape:cy="8.3293838"
     inkscape:window-width="1920"
     inkscape:window-height="1008"
     inkscape:window-x="0"
     inkscape:window-y="0"
     inkscape:window-maximized="1"
     inkscape:current-layer="svg1">
    <inkscape:page
       x="0"
       y="0"
       width="16"
       height="16"
       id="page2"
       margin="0"
       bleed="0" />
  </sodipodi:namedview>
  <path
     fill="#8da5f3"
     d="M 5,1 A 4,4 0 0 0 1,5 v 6 a 4,4 0 0 0 4,4 h 6 a 4,4 0 0 0 4,-4 V 5 A 4,4 0 0 0 11,1 Z M 3,7 A 1,1 0 0 1 5,7 V 9 A 1,1 0 0 1 3,9 Z M 13,9 A 1,1 0 0 1 11,9 V 7 a 1,1 0 0 1 2,0 z m -2.172,3.828 a 4,4 0 0 1 -5.656,0 1,1 0 0 1 1.414,-1.414 2,2 0 0 0 2.828,0 1,1 0 0 1 1.414,1.414 z"
     id="path1"
     style="fill:#f38dd8;fill-opacity:1" />
</svg>
